<svg xmlns="http://www.w3.org/2000/svg" version="1.1" xmlns:xlink="http://www.w3.org/1999/xlink" width="512" height="512" x="0" y="0" viewBox="0 0 32 32" style="enable-background:new 0 0 512 512" xml:space="preserve"><g><path d="M27.348 7h-4.294l-.5-1.5A3.645 3.645 0 0 0 19.089 3h-6.178a3.646 3.646 0 0 0-3.464 2.5L8.946 7H4.652A3.656 3.656 0 0 0 1 10.652v14.7A3.656 3.656 0 0 0 4.652 29h22.7A3.656 3.656 0 0 0 31 25.348v-14.7A3.656 3.656 0 0 0 27.348 7ZM29 25.348A1.654 1.654 0 0 1 27.348 27H4.652A1.654 1.654 0 0 1 3 25.348v-14.7A1.654 1.654 0 0 1 4.652 9h5.015a1 1 0 0 0 .948-.684l.729-2.187A1.65 1.65 0 0 1 12.911 5h6.178a1.649 1.649 0 0 1 1.567 1.13l.729 2.186a1 1 0 0 0 .948.684h5.015A1.654 1.654 0 0 1 29 10.652Z" fill="#ffffff" opacity="1" data-original="#000000"></path><path d="M16 10a7.5 7.5 0 1 0 7.5 7.5A7.508 7.508 0 0 0 16 10Zm0 13a5.5 5.5 0 1 1 5.5-5.5A5.506 5.506 0 0 1 16 23Z" fill="#ffffff" opacity="1" data-original="#000000"></path><circle cx="26" cy="12" r="1" fill="#ffffff" opacity="1" data-original="#000000"></circle></g></svg>