<svg fill="none" height="300" viewBox="0 0 64 64" width="300" xmlns="http://www.w3.org/2000/svg" version="1.1" xmlns:xlink="http://www.w3.org/1999/xlink" xmlns:svgjs="http://svgjs.dev/svgjs"><g width="100%" height="100%" transform="matrix(1,0,0,1,0,0)"><g fill="#000"><path d="m9.15811 18.2201c4.71359-7.3516 12.95639-12.2201 22.33279-12.2201 14.6406 0 26.5091 11.8685 26.5091 26.5091 0 1.1046.8954 2 2 2s2-.8954 2-2c0-16.8497-13.6594-30.5091-30.5091-30.5091-10.5325 0-19.8153 5.33675-25.29694 13.4495l-.21275-1.5412c-.15104-1.0942-1.16051-1.8587-2.2547-1.7077s-1.85877 1.1605-1.70772 2.2547l1.05413 7.6364c.08242.597.42969 1.1251.94524 1.4373s1.1444.3752 1.71167.1716l7.09127-2.5455c1.0397-.3731 1.5799-1.5184 1.2068-2.5581-.3732-1.0396-1.5185-1.5799-2.5581-1.2067z" fill="#ffffff" fill-opacity="1" data-original-color="#000000ff" stroke="none" stroke-opacity="1"/><path d="m6 32c0-1.1046-.89543-2-2-2s-2 .8954-2 2c0 16.6024 13.6935 30 30.5091 30 10.5222 0 19.8122-5.2405 25.2988-13.2272l.2116 1.5056c.1537 1.0938 1.165 1.8559 2.2589 1.7021 1.0938-.1537 1.8559-1.165 1.7021-2.2589l-1.0541-7.5c-.0835-.594-.4292-1.1192-.9418-1.4307s-1.138-.3766-1.7037-.1771l-7.0913 2.5c-1.0418.3672-1.5885 1.5094-1.2213 2.5512.3673 1.0417 1.5095 1.5885 2.5512 1.2212l2.2768-.8027c-4.7158 7.1632-12.9289 11.9165-22.2872 11.9165-14.6747 0-26.5091-11.6744-26.5091-26z" fill="#ffffff" fill-opacity="1" data-original-color="#000000ff" stroke="none" stroke-opacity="1"/><path clip-rule="evenodd" d="m23.6115 18.3215c.7336-2.1306 2.7621-3.3215 4.8073-3.3215h7.1678c2.0325 0 4.0546 1.1767 4.7943 3.296.1731.496.3551 1.0637.5208 1.6734 3.8406.3097 7.205 3.137 7.6944 7.1577.5401 4.4376.5386 8.1961-.0051 12.6741-.5181 4.2673-4.2703 7.1988-8.403 7.1988h-16.3889c-4.1585 0-7.9214-2.967-8.4161-7.2588-.5092-4.4182-.5111-8.1457-.003-12.5492.4675-4.0518 3.8505-6.918 7.7241-7.2237.1619-.5988.3388-1.1572.5074-1.6468zm1.3885 14.3256c0-3.8557 3.1564-6.9412 7-6.9412s7 3.0855 7 6.9412c0 3.8558-3.1564 6.9412-7 6.9412s-7-3.0854-7-6.9412z" fill-rule="evenodd" fill="#ffffff" fill-opacity="1" data-original-color="#000000ff" stroke="none" stroke-opacity="1"/></g></g></svg>