<svg id="Layer_1" enable-background="new 0 0 300 300" height="512" viewBox="0 0 300 300" width="512" xmlns="http://www.w3.org/2000/svg"><path clip-rule="evenodd" d="m19 292.5v-10h263v10zm250.7-236.7-87.1 87.1-35.8-35.8 90.6-90.6c.1-.2.3-.3.4-.5 10-10 26.2-10 36.2 0s10 26.2 0 36.2c-1.2 1.4-2.7 2.6-4.3 3.6zm-141 51.3c13.1-14 71.1-79.3 80.2-89.3s19.9-14.5 24-8.6c-6.8 6.8-110.5 110.6-110.5 110.6s-6.9 1.3 6.3-12.7zm43 38.5-97.4 97.4-27.2-27.2 97.4-97.4zm-111.4 111.4-41.3 15 14-42.1 6.8-6.8 27.2 27.2z" fill-rule="evenodd"/></svg>