<svg enable-background="new 0 0 512 512" viewBox="0 0 512 512" xmlns="http://www.w3.org/2000/svg"><g id="_x35_0_exclamation_mark"/><g id="_x34_9_gears"/><g id="_x34_8_tel"/><g id="_x34_7_call_center"/><g id="_x34_6_arrow_right"/><g id="_x34_5_partner"/><g id="_x34_4_developer"/><g id="_x34_3_easy"/><g id="_x34_2_tax"/><g id="_x34_1_government"/><g id="_x34_0_microsoft_edge"/><g id="_x33_9_category"/><g id="_x33_8_projects"/><g id="_x33_7_external_hard_drive"/><g id="_x33_6_quote"/><g id="_x33_5_netflix"/><g id="_x33_4_custom"/><g id="_x33_3_clear"/><g id="_x33_2_png"/><g id="_x33_1_risk"/><g id="_x33_0_sort"/><g id="_x32_9_survey"/><g id="_x32_8_request"/><g id="_x32_7_log"/><g id="_x32_6_right_arrow"/><g id="_x32_5_load"/><g id="_x32_4_book"/><g id="_x32_3_outlook"/><g id="_x32_2_fax"/><g id="_x32_1_playstore"/><g id="_x32_0_progress"/><g id="_x31_9_brand"/><g id="_x31_8_dance"/><g id="_x31_7_github"/><g id="_x31_6_correct"/><g id="_x31_5_speak"/><g id="_x31_4_parking"/><g id="_x31_3_api"/><g id="_x31_2_exclamation"/><g id="_x31_1_cost"/><g id="_x31_0_subscribe"/><g id="_x30_9_maps"/><g id="_x30_8_pig"/><g id="_x30_7_running"/><g id="_x30_6_down_arrow"/><g id="_x30_5_status"/><g id="_x30_4_arrow_down"/><g id="_x30_3_reset"><g><circle cx="256" cy="256" fill="#67c7a5" r="234"/><g fill="#fff"><path d="m248.3 415.8c-87.1 0-158-71.7-158-159.8s70.9-159.8 158-159.8 158 71.7 158 159.8c0 26.6-6.6 52.9-19 76.1l-28.3-15.1c10-18.6 15.2-39.7 15.2-61 0-70.5-56.5-127.8-126-127.8s-126 57.3-126 127.8 56.5 127.8 126 127.8v32z"/><path d="m373.2 340.6c-1.6 0-3.1-.2-4.6-.7-4.3-1.3-7.8-4.3-9.8-8.3l-27.9-57.5 28.8-14 20.4 42 43.2-25.3 16.2 27.6-58.1 34.1c-2.6 1.4-5.4 2.1-8.2 2.1z"/></g></g></g><g id="_x30_2_inventory"/><g id="_x30_1_light_bulb"/></svg>