<svg xmlns="http://www.w3.org/2000/svg" version="1.1" xmlns:xlink="http://www.w3.org/1999/xlink" width="512" height="512" x="0" y="0" viewBox="0 0 24 24" style="enable-background:new 0 0 512 512" xml:space="preserve" class=""><g><circle cx="6" cy="6" r="2" fill="#ffffff" opacity="1" data-original="#000000" class=""></circle><path d="M11 16a7.001 7.001 0 0 1 4.263-6.444l-2.41-2.41a.5.5 0 0 0-.706 0L6.75 12.543l-1.896-1.897a.5.5 0 0 0-.707 0L1 13.793V4a1.001 1.001 0 0 1 1-1h17a1.001 1.001 0 0 1 1 1v5.294a6.93 6.93 0 0 1 1 .389V4a2.002 2.002 0 0 0-2-2H2a2.002 2.002 0 0 0-2 2v11a2.002 2.002 0 0 0 2 2h9.08a7.014 7.014 0 0 1-.08-1Z" fill="#ffffff" opacity="1" data-original="#000000" class=""></path><path d="M18 10a6 6 0 1 0 6 6 6 6 0 0 0-6-6Zm2.354 5.854a.5.5 0 0 1-.707 0L18.5 14.707v3.792a.5.5 0 0 1-1 0v-3.792l-1.146 1.146a.5.5 0 0 1-.707-.707l2-2a.5.5 0 0 1 .707 0l2 2a.5.5 0 0 1 0 .708Z" fill="#ffffff" opacity="1" data-original="#000000" class=""></path></g></svg>