<svg id="Layer_1" viewBox="0 0 64 64" xmlns="http://www.w3.org/2000/svg" width="300" height="300" version="1.1" xmlns:xlink="http://www.w3.org/1999/xlink" xmlns:svgjs="http://svgjs.dev/svgjs"><g width="100%" height="100%" transform="matrix(1,0,0,1,0,0)"><path d="m21.592 27.083c2.754 0 4.994-2.24 4.994-4.994s-2.24-4.994-4.994-4.994-4.994 2.24-4.994 4.994 2.24 4.994 4.994 4.994zm0-8.051c1.685 0 3.057 1.371 3.057 3.057s-1.371 3.057-3.057 3.057-3.056-1.371-3.056-3.057 1.371-3.057 3.056-3.057z" fill="#ffffff" fill-opacity="1" data-original-color="#000000ff" stroke="none" stroke-opacity="1"/><path d="m62.975 49.184-3.942-42.468c-.143-1.544-.878-2.941-2.07-3.933-1.193-.992-2.699-1.461-4.245-1.317l-42.467 3.95c-1.934.177-3.621 1.302-4.54 2.973-2.674.482-4.711 2.822-4.711 5.633v42.809c0 3.158 2.57 5.728 5.728 5.728h42.81c3.158 0 5.728-2.57 5.728-5.728v-1.099l2.468-.233c3.184-.295 5.535-3.128 5.24-6.316zm-60.038-35.162c0-2.09 1.701-3.791 3.791-3.791h42.81c2.09 0 3.791 1.701 3.791 3.791v30.406l-13.793-23.587c-.177-.304-.496-.472-.857-.48-.352.008-.672.205-.836.517l-12.975 24.565-5.984-9.409c-.182-.287-.487-.468-.842-.448-.34.009-.65.195-.818.491l-13.24 23.355c-.645-.68-1.047-1.592-1.047-2.601zm3.876 46.6h-.086c-.381 0-.742-.074-1.09-.179l12.476-22.009 14.111 22.188h-25.41zm42.724 0h-15.016l-8.457-13.297 12.678-24.002 14.586 24.943v8.565c0 2.09-1.701 3.791-3.791 3.791zm8.016-7.052-2.288.215v-39.763c0-3.159-2.57-5.729-5.728-5.729h-41.305c.602-.528 1.363-.871 2.196-.947l42.469-3.952c1.026-.097 2.032.217 2.827.877.795.661 1.285 1.593 1.38 2.622l3.942 42.468c.196 2.124-1.369 4.011-3.491 4.208z" fill="#ffffff" fill-opacity="1" data-original-color="#000000ff" stroke="none" stroke-opacity="1"/></g></svg>